# Blender 5.1.2
# www.blender.org
mtllib spaceship.mtl
o Cube
v 0.000000 -3.000000 15.366321
v 9.218827 -1.392690 -10.000000
v 10.000000 3.000000 -10.000000
v 9.218827 -1.392690 0.000000
v 10.000000 3.000000 0.000000
v 0.000000 -3.000000 -10.000000
v 0.000000 3.000000 -10.000000
v 1.250000 3.000000 -10.000000
v 5.000000 3.000000 -10.000000
v 5.000000 3.000000 0.000000
v 5.000000 -2.189841 -10.000000
v 5.000000 -2.189841 0.000000
v 10.000000 3.000000 5.000000
v 9.218827 -1.392690 5.000000
v 5.000000 3.000000 5.000000
v 5.000000 -2.189841 5.000000
v 9.218827 -1.392690 -5.000000
v 10.000000 3.000000 -5.000000
v 1.250000 3.762747 -10.000000
v 5.000000 3.000000 -5.000000
v 5.000000 -2.189841 -5.000000
v 7.500000 -1.392690 -10.000000
v 7.500000 -1.392690 0.000000
v 7.500000 3.000000 5.000000
v 7.500000 -1.392690 5.000000
v 0.000000 4.476828 15.366321
v 7.500000 -1.392690 -5.000000
v 11.136290 3.000000 6.666667
v 4.986562 3.000000 8.500000
v 9.218827 -0.843850 7.500000
v 9.218827 -1.392690 -7.500000
v 10.000000 3.000000 -7.500000
v 5.000000 3.000000 -7.500000
v 5.000000 -2.189841 -7.500000
v 7.500000 -1.392690 -7.500000
v 3.461215 -0.792957 11.933204
v 2.500000 -3.000000 13.091482
v 3.259576 3.309161 16.638792
v 2.500000 -3.000000 -10.000000
v 2.663826 2.865936 17.959644
v 2.500000 -3.000000 0.000000
v 2.500000 3.000000 -10.000000
v 2.500000 -3.000000 10.000000
v 2.500000 3.000000 0.000000
v 2.500000 -3.000000 5.000000
v 2.500000 3.000000 5.000000
v 2.500000 -3.000000 -5.000000
v 2.500000 3.000000 -5.000000
v 2.271534 -2.900032 7.040749
v 2.196004 0.827002 18.743359
v 2.500000 3.000000 -7.500000
v 2.500000 -3.000000 -7.500000
v 0.000000 0.827002 18.743359
v 0.000000 2.675523 18.743359
v 0.000000 -3.000000 16.007019
v 5.874897 -0.001335 10.339751
v 10.000000 -0.001335 -10.000000
v 10.000000 -0.001335 0.000000
v 5.000000 -0.001335 -10.000000
v 10.000000 -0.001335 5.000000
v 10.000000 -0.001335 -5.000000
v 7.500000 -0.001335 -10.000000
v 11.136290 -0.001335 6.666667
v 10.000000 -0.001335 -7.500000
v 2.500000 -0.001335 -10.000000
v 0.000000 -0.001335 17.911263
v 2.500000 -0.001335 17.911263
v 7.500000 5.215052 -10.000000
v 10.000000 5.215052 -10.000000
v 10.000000 5.215052 0.000000
v 7.500000 5.215052 0.000000
v 5.000000 5.215052 -5.000000
v 5.000000 5.215052 0.000000
v 10.000000 4.650923 3.221381
v 5.000000 4.650923 3.221381
v 7.500000 4.650923 3.221381
v 10.000000 5.215052 -7.500000
v 5.000000 5.215052 -7.500000
v 7.500000 5.215052 -5.000000
v 5.000000 5.215052 -10.000000
v 7.500000 5.215052 -7.500000
v 0.000000 5.884279 10.000000
v 0.000000 3.762747 -5.000000
v 0.000000 6.268886 0.000000
v 0.000000 6.268886 7.500000
v 0.000000 6.268886 5.000000
v 0.000000 3.762747 -7.500000
v 0.000000 3.762747 -10.000000
v 2.500000 3.762747 -10.000000
v 2.500000 6.268886 0.000000
v 2.500000 6.268886 5.000000
v 2.500000 3.762747 -5.000000
v 2.500000 6.076582 8.750000
v 2.500000 3.762747 -7.500000
v 0.000000 2.908420 18.743359
v 0.000000 3.378140 17.911263
v 7.500000 3.019532 -11.271067
v 10.738278 3.077399 -12.197413
v 4.261722 3.077399 -12.197413
v 10.738278 5.946581 -12.197413
v 7.500000 5.946581 -12.197413
v 4.261722 5.946581 -12.197413
v 10.738278 -0.810264 -12.197413
v 4.261722 -0.810264 -12.197413
v 7.500000 -0.810264 -12.197413
v 10.186311 3.019532 -12.197413
v 4.813690 3.019532 -12.197413
v 10.186311 5.399659 -12.197413
v 7.500000 5.399659 -12.197413
v 4.813690 5.399659 -12.197413
v 10.186311 -0.205475 -12.197413
v 4.813690 -0.205475 -12.197413
v 7.500000 -0.205475 -12.197413
v 10.186311 3.019532 -11.271067
v 4.813690 3.019532 -11.271067
v 10.186311 5.399659 -11.271067
v 7.500000 5.399659 -11.271067
v 4.813690 5.399659 -11.271067
v 10.186311 -0.205475 -11.271067
v 4.813690 -0.205475 -11.271067
v 7.500000 -0.205475 -11.271067
v 10.787091 3.000000 -5.000000
v 11.398653 3.000000 0.000000
v 10.787091 3.000000 -7.500000
v 10.787091 3.000000 -10.000000
v 10.787091 -0.001335 -10.000000
v 11.398653 -0.001335 0.000000
v 10.787091 -0.001335 -5.000000
v 10.787091 -0.001335 -7.500000
v 2.500000 3.000000 -9.594920
v 5.000000 3.000000 -9.594920
v 5.000000 -0.001335 -9.594920
v 5.000000 -2.189841 -9.594920
v 2.500000 -3.000000 -9.594920
v 2.500000 -0.001335 -9.594920
v 9.375000 5.215052 -5.000000
v 9.375000 5.215052 0.000000
v 9.375000 5.215052 -7.500000
v 10.000000 4.661289 0.000000
v 10.000000 4.661289 -5.000000
v 10.000000 4.661289 -7.500000
v 11.793858 11.624533 -9.972862
v 11.793858 11.624533 -8.068546
v 11.555819 11.624533 -8.068546
v 11.793858 11.624533 -10.925018
v 11.555819 11.624533 -9.972862
v 11.555819 11.624533 -10.925018
v 11.793858 11.070770 -8.068546
v 11.793858 11.070770 -9.972862
v 11.793858 11.070770 -10.925018
v 8.061426 3.000000 7.583333
v 8.505593 -0.001335 8.503209
v 10.000000 1.499332 -10.000000
v 5.000000 1.499332 -10.000000
v 11.136290 1.499332 6.666667
v 2.500000 1.499332 -10.000000
v 10.738278 1.133568 -12.197413
v 4.261722 1.133568 -12.197413
v 10.186311 1.407029 -12.197413
v 4.813690 1.407029 -12.197413
v 10.186311 1.407029 -11.271067
v 4.813690 1.407029 -11.271067
v 7.500000 1.407029 -11.271067
v 10.787091 1.499332 -10.000000
v 5.000000 1.499332 -9.594920
v 2.500000 1.499332 -9.594920
v 5.430729 1.499332 9.419876
v 10.000000 0.748998 -10.000000
v 5.000000 0.748998 -10.000000
v 2.500000 0.748998 -10.000000
v 10.738278 0.161652 -12.197413
v 4.261722 0.161652 -12.197413
v 10.186311 0.600777 -12.197413
v 4.813690 0.600777 -12.197413
v 10.186311 0.600777 -11.271067
v 4.813690 0.600777 -11.271067
v 7.500000 0.600777 -11.271067
v 10.787091 0.748998 -10.000000
v 11.398653 0.748998 0.000000
v 10.787091 0.748998 -5.000000
v 10.787091 0.748998 -7.500000
v 5.000000 0.748998 -9.594920
v 2.500000 0.748998 -9.594920
v 5.652813 0.748998 9.879813
v 8.394552 0.748998 8.273240
v 10.000000 2.249666 -10.000000
v 5.000000 2.249666 -10.000000
v 2.500000 2.249666 -10.000000
v 10.738278 2.105483 -12.197413
v 4.261722 2.105483 -12.197413
v 10.186311 2.213280 -12.197413
v 4.813690 2.213280 -12.197413
v 10.186311 2.213280 -11.271067
v 4.813690 2.213280 -11.271067
v 7.500000 2.213280 -11.271067
v 10.787091 2.249666 -10.000000
v 11.398653 2.249666 0.000000
v 10.787091 2.249666 -5.000000
v 10.787091 2.249666 -7.500000
v 5.000000 2.249666 -9.594920
v 2.500000 2.249666 -9.594920
v 5.208646 2.249666 8.959938
v 8.172468 2.249666 7.813302
v 21.973398 1.499332 -6.522796
v 21.973398 1.780006 -10.021992
v 21.973398 1.499332 -10.021992
v 21.973398 1.780006 -7.922474
v 21.973398 1.780006 -8.972234
v 21.973398 1.780006 -9.497112
v 21.973398 1.218659 -10.021992
v 21.973398 1.218659 -7.922474
v 21.973398 1.218659 -8.972234
v 21.973398 1.218659 -9.497112
v 9.654379 2.249666 7.239985
v 9.709900 1.499332 7.354969
v 9.765421 0.748998 7.469954
v 6.690557 2.249666 8.386621
v 7.023683 0.748998 9.076527
v 6.857120 1.499332 8.731574
v 7.782172 1.944208 7.004480
v 7.893214 1.193874 7.234449
v 9.319604 1.193874 6.546147
v 8.004256 0.443540 7.464418
v 9.375125 0.443540 6.661131
v 9.264083 1.944208 6.431162
v 6.300261 1.944208 7.577798
v 6.633387 0.443540 8.267705
v 6.466824 1.193874 7.922752
v 22.282393 1.694471 -7.135964
v 22.282393 1.499332 -7.135964
v 22.282393 1.694471 -9.568780
v 22.282393 1.499332 -9.568780
v 22.282393 1.304194 -7.135964
v 22.282393 1.304194 -9.568780
v 22.282393 1.304194 -8.838936
v 22.282393 1.304194 -8.109091
v 22.282393 1.304194 -9.203857
v 22.282393 1.694471 -9.203857
v 22.282393 1.694471 -8.838936
v 22.282393 1.694471 -8.109091
v 11.136290 1.499332 6.666667
v 11.398653 2.249666 0.000000
v 11.136290 2.999850 6.666667
v 21.973398 1.780006 -7.922474
v 21.973398 1.499332 -6.522796
v 22.282185 1.694528 -7.135552
v 11.232166 0.748998 4.230444
v 11.136290 1.195823 6.666667
v 21.973398 1.499332 -6.522796
v 21.973398 1.218659 -7.922474
v 22.282185 1.304137 -7.135552
v 1.954379 -3.358232 -8.297638
v 0.000000 -3.358232 -8.297638
v 1.954379 -3.358232 0.257063
v 0.000000 -3.358232 0.257063
v 0.000000 -3.358232 -4.020288
v 0.000000 -3.358232 6.673089
v 0.000000 -3.358232 8.811764
v 0.000000 -3.358232 4.534413
v 1.954379 -3.358232 4.534413
v 0.000000 -3.358232 -6.158963
v 1.954379 -3.358232 -4.020288
v 1.954379 -3.358232 6.673089
v 1.954379 -3.358232 -6.158963
v 0.000000 -3.358232 13.402491
v 1.954379 -3.358232 11.456434
v 1.954379 -3.358232 8.811764
v 1.250000 -3.000000 -10.000000
v 1.875000 3.000000 -10.000000
v 1.875000 -0.001335 -10.000000
v 1.875000 -3.000000 -10.000000
v 1.875000 3.762747 -10.000000
v 1.875000 1.499332 -10.000000
v 1.875000 2.249666 -10.000000
v 1.875000 0.748998 -10.000000
v 13.030792 2.155464 -10.004411
v 11.871645 2.228659 -0.354360
v 12.861013 2.162592 -7.870261
v 11.871642 2.228659 -0.354358
v 12.686317 2.169927 -5.674411
v 11.882706 2.495560 -0.354796
v 11.409713 2.516567 -0.000436
v 12.872074 2.429493 -7.870697
v 10.798151 2.516567 -7.500436
v 10.798151 2.516567 -10.000437
v 10.798151 2.516567 -5.000436
v 13.041853 2.422365 -10.004847
v 12.697377 2.436827 -5.674847
v 6.156845 5.399659 -11.271067
v 6.156845 -0.205475 -11.271067
v 8.843155 -0.205475 -11.271067
v 8.843155 5.399659 -11.271067
v 8.171577 -0.205475 -11.271067
v 8.171577 5.399659 -11.271067
v 6.828423 5.399659 -11.271067
v 6.828423 -0.205475 -11.271067
v 4.813690 2.616406 -11.271067
v 6.156845 2.616406 -11.271067
v 8.171577 2.616406 -11.271067
v 7.500000 2.616406 -11.271067
v 4.813690 2.616406 -12.197413
v 6.828423 2.616406 -11.271067
v 10.186311 2.616406 -11.271067
v 8.843155 2.616406 -11.271067
v 1.875000 -1.500668 -10.000000
v 2.500000 -1.500668 -10.000000
v 1.875000 -2.250334 -10.000000
v 1.250000 -2.250334 -10.000000
v 2.500000 -2.250334 -10.000000
v 0.000000 -2.250334 -10.000000
v 0.000000 2.249666 -9.377736
v 1.250000 2.249666 -9.377736
v 0.000000 1.499332 -9.377736
v 1.250000 1.499332 -9.377736
v 0.000000 0.748998 -9.377736
v 1.250000 0.748998 -9.377736
v 0.000000 -0.001335 -9.377736
v 0.000000 3.000000 -9.377736
v 1.250000 3.000000 -9.377736
v 1.250000 -0.001335 -9.377736
v 1.875000 3.000000 -9.377736
v 1.875000 -0.001335 -9.377736
v 1.875000 1.499332 -9.377736
v 1.875000 2.249666 -9.377736
v 1.875000 0.748998 -9.377736
v 1.875000 -1.500668 -9.377736
v 1.250000 -1.500668 -9.377736
v 0.000000 -1.500668 -9.377736
v 1.875000 -2.250334 -9.377736
v 1.250000 -2.250334 -9.377736
v 0.000000 -2.250334 -9.377736
v 4.930502 -2.001887 -5.004728
v 4.930502 -2.001887 -0.004729
v 4.930502 -2.001887 4.995271
v 4.930502 -2.001887 -7.504728
v 4.930502 -2.001887 -10.004729
v 2.430502 -2.812046 -0.004729
v 2.430502 -2.812046 4.995271
v 2.430502 -2.812046 -5.004728
v 2.430502 -2.812046 -7.504728
v 2.430502 -2.812046 -10.004729
v 2.202036 -2.712079 7.036020
v 2.430502 -2.812046 9.995272
v 3.391717 -0.605004 11.928474
v 4.930502 -2.001887 -9.599648
v 2.430502 -2.812046 -9.599648
v -9.218827 -1.392690 -10.000000
v -10.000000 3.000000 -10.000000
v -9.218827 -1.392690 0.000000
v -10.000000 3.000000 0.000000
v -1.250000 3.000000 -10.000000
v -5.000000 3.000000 -10.000000
v -5.000000 3.000000 0.000000
v -5.000000 -2.189841 -10.000000
v -5.000000 -2.189841 0.000000
v -10.000000 3.000000 5.000000
v -9.218827 -1.392690 5.000000
v -5.000000 3.000000 5.000000
v -5.000000 -2.189841 5.000000
v -9.218827 -1.392690 -5.000000
v -10.000000 3.000000 -5.000000
v -1.250000 3.762747 -10.000000
v -5.000000 3.000000 -5.000000
v -5.000000 -2.189841 -5.000000
v -7.500000 -1.392690 -10.000000
v -7.500000 -1.392690 0.000000
v -7.500000 3.000000 5.000000
v -7.500000 -1.392690 5.000000
v -7.500000 -1.392690 -5.000000
v -11.136290 3.000000 6.666667
v -4.986562 3.000000 8.500000
v -9.218827 -0.843850 7.500000
v -9.218827 -1.392690 -7.500000
v -10.000000 3.000000 -7.500000
v -5.000000 3.000000 -7.500000
v -5.000000 -2.189841 -7.500000
v -7.500000 -1.392690 -7.500000
v -3.461215 -0.792957 11.933204
v -2.500000 -3.000000 13.091482
v -3.259576 3.309161 16.638792
v -2.500000 -3.000000 -10.000000
v -2.663826 2.865936 17.959644
v -2.500000 -3.000000 0.000000
v -2.500000 3.000000 -10.000000
v -2.500000 -3.000000 10.000000
v -2.500000 3.000000 0.000000
v -2.500000 -3.000000 5.000000
v -2.500000 3.000000 5.000000
v -2.500000 -3.000000 -5.000000
v -2.500000 3.000000 -5.000000
v -2.271534 -2.900032 7.040749
v -2.196004 0.827002 18.743359
v -2.500000 3.000000 -7.500000
v -2.500000 -3.000000 -7.500000
v -5.874897 -0.001335 10.339751
v -10.000000 -0.001335 -10.000000
v -10.000000 -0.001335 0.000000
v -5.000000 -0.001335 -10.000000
v -10.000000 -0.001335 5.000000
v -10.000000 -0.001335 -5.000000
v -7.500000 -0.001335 -10.000000
v -11.136290 -0.001335 6.666667
v -10.000000 -0.001335 -7.500000
v -2.500000 -0.001335 -10.000000
v -2.500000 -0.001335 17.911263
v -7.500000 5.215052 -10.000000
v -10.000000 5.215052 -10.000000
v -10.000000 5.215052 0.000000
v -7.500000 5.215052 0.000000
v -5.000000 5.215052 -5.000000
v -5.000000 5.215052 0.000000
v -10.000000 4.650923 3.221381
v -5.000000 4.650923 3.221381
v -7.500000 4.650923 3.221381
v -10.000000 5.215052 -7.500000
v -5.000000 5.215052 -7.500000
v -7.500000 5.215052 -5.000000
v -5.000000 5.215052 -10.000000
v -7.500000 5.215052 -7.500000
v -2.500000 3.762747 -10.000000
v -2.500000 6.268886 0.000000
v -2.500000 6.268886 5.000000
v -2.500000 3.762747 -5.000000
v -2.500000 6.076582 8.750000
v -2.500000 3.762747 -7.500000
v -7.500000 3.019532 -11.271067
v -10.738278 3.077399 -12.197413
v -4.261722 3.077399 -12.197413
v -10.738278 5.946581 -12.197413
v -7.500000 5.946581 -12.197413
v -4.261722 5.946581 -12.197413
v -10.738278 -0.810264 -12.197413
v -4.261722 -0.810264 -12.197413
v -7.500000 -0.810264 -12.197413
v -10.186311 3.019532 -12.197413
v -4.813690 3.019532 -12.197413
v -10.186311 5.399659 -12.197413
v -7.500000 5.399659 -12.197413
v -4.813690 5.399659 -12.197413
v -10.186311 -0.205475 -12.197413
v -4.813690 -0.205475 -12.197413
v -7.500000 -0.205475 -12.197413
v -10.186311 3.019532 -11.271067
v -4.813690 3.019532 -11.271067
v -10.186311 5.399659 -11.271067
v -7.500000 5.399659 -11.271067
v -4.813690 5.399659 -11.271067
v -10.186311 -0.205475 -11.271067
v -4.813690 -0.205475 -11.271067
v -7.500000 -0.205475 -11.271067
v -10.787091 3.000000 -5.000000
v -11.398653 3.000000 0.000000
v -10.787091 3.000000 -7.500000
v -10.787091 3.000000 -10.000000
v -10.787091 -0.001335 -10.000000
v -11.398653 -0.001335 0.000000
v -10.787091 -0.001335 -5.000000
v -10.787091 -0.001335 -7.500000
v -2.500000 3.000000 -9.594920
v -5.000000 3.000000 -9.594920
v -5.000000 -0.001335 -9.594920
v -5.000000 -2.189841 -9.594920
v -2.500000 -3.000000 -9.594920
v -2.500000 -0.001335 -9.594920
v -9.375000 5.215052 -5.000000
v -9.375000 5.215052 0.000000
v -9.375000 5.215052 -7.500000
v -10.000000 4.661289 0.000000
v -10.000000 4.661289 -5.000000
v -10.000000 4.661289 -7.500000
v -11.793858 11.624533 -9.972862
v -11.793858 11.624533 -8.068546
v -11.555819 11.624533 -8.068546
v -11.793858 11.624533 -10.925018
v -11.555819 11.624533 -9.972862
v -11.555819 11.624533 -10.925018
v -11.793858 11.070770 -8.068546
v -11.793858 11.070770 -9.972862
v -11.793858 11.070770 -10.925018
v -8.061426 3.000000 7.583333
v -8.505593 -0.001335 8.503209
v -10.000000 1.499332 -10.000000
v -5.000000 1.499332 -10.000000
v -11.136290 1.499332 6.666667
v -2.500000 1.499332 -10.000000
v -10.738278 1.133568 -12.197413
v -4.261722 1.133568 -12.197413
v -10.186311 1.407029 -12.197413
v -4.813690 1.407029 -12.197413
v -10.186311 1.407029 -11.271067
v -4.813690 1.407029 -11.271067
v -7.500000 1.407029 -11.271067
v -10.787091 1.499332 -10.000000
v -5.000000 1.499332 -9.594920
v -2.500000 1.499332 -9.594920
v -5.430729 1.499332 9.419876
v -10.000000 0.748998 -10.000000
v -5.000000 0.748998 -10.000000
v -2.500000 0.748998 -10.000000
v -10.738278 0.161652 -12.197413
v -4.261722 0.161652 -12.197413
v -10.186311 0.600777 -12.197413
v -4.813690 0.600777 -12.197413
v -10.186311 0.600777 -11.271067
v -4.813690 0.600777 -11.271067
v -7.500000 0.600777 -11.271067
v -10.787091 0.748998 -10.000000
v -11.398653 0.748998 0.000000
v -10.787091 0.748998 -5.000000
v -10.787091 0.748998 -7.500000
v -5.000000 0.748998 -9.594920
v -2.500000 0.748998 -9.594920
v -5.652813 0.748998 9.879813
v -8.394552 0.748998 8.273240
v -10.000000 2.249666 -10.000000
v -5.000000 2.249666 -10.000000
v -2.500000 2.249666 -10.000000
v -10.738278 2.105483 -12.197413
v -4.261722 2.105483 -12.197413
v -10.186311 2.213280 -12.197413
v -4.813690 2.213280 -12.197413
v -10.186311 2.213280 -11.271067
v -4.813690 2.213280 -11.271067
v -7.500000 2.213280 -11.271067
v -10.787091 2.249666 -10.000000
v -11.398653 2.249666 0.000000
v -10.787091 2.249666 -5.000000
v -10.787091 2.249666 -7.500000
v -5.000000 2.249666 -9.594920
v -2.500000 2.249666 -9.594920
v -5.208646 2.249666 8.959938
v -8.172468 2.249666 7.813302
v -21.973398 1.499332 -6.522796
v -21.973398 1.780006 -10.021992
v -21.973398 1.499332 -10.021992
v -21.973398 1.780006 -7.922474
v -21.973398 1.780006 -8.972234
v -21.973398 1.780006 -9.497112
v -21.973398 1.218659 -10.021992
v -21.973398 1.218659 -7.922474
v -21.973398 1.218659 -8.972234
v -21.973398 1.218659 -9.497112
v -9.654379 2.249666 7.239985
v -9.709900 1.499332 7.354969
v -9.765421 0.748998 7.469954
v -6.690557 2.249666 8.386621
v -7.023683 0.748998 9.076527
v -6.857120 1.499332 8.731574
v -7.782172 1.944208 7.004480
v -7.893214 1.193874 7.234449
v -9.319604 1.193874 6.546147
v -8.004256 0.443540 7.464418
v -9.375125 0.443540 6.661131
v -9.264083 1.944208 6.431162
v -6.300261 1.944208 7.577798
v -6.633387 0.443540 8.267705
v -6.466824 1.193874 7.922752
v -22.282393 1.694471 -7.135964
v -22.282393 1.499332 -7.135964
v -22.282393 1.694471 -9.568780
v -22.282393 1.499332 -9.568780
v -22.282393 1.304194 -7.135964
v -22.282393 1.304194 -9.568780
v -22.282393 1.304194 -8.838936
v -22.282393 1.304194 -8.109091
v -22.282393 1.304194 -9.203857
v -22.282393 1.694471 -9.203857
v -22.282393 1.694471 -8.838936
v -22.282393 1.694471 -8.109091
v -11.136290 1.499332 6.666667
v -11.398653 2.249666 0.000000
v -11.136290 2.999850 6.666667
v -21.973398 1.780006 -7.922474
v -21.973398 1.499332 -6.522796
v -22.282185 1.694528 -7.135552
v -11.232166 0.748998 4.230444
v -11.136290 1.195823 6.666667
v -21.973398 1.499332 -6.522796
v -21.973398 1.218659 -7.922474
v -22.282185 1.304137 -7.135552
v -1.954379 -3.358232 -8.297638
v -1.954379 -3.358232 0.257063
v -1.954379 -3.358232 4.534413
v -1.954379 -3.358232 -4.020288
v -1.954379 -3.358232 6.673089
v -1.954379 -3.358232 -6.158963
v -1.954379 -3.358232 11.456434
v -1.954379 -3.358232 8.811764
v -1.250000 -3.000000 -10.000000
v -1.875000 3.000000 -10.000000
v -1.875000 -0.001335 -10.000000
v -1.875000 -3.000000 -10.000000
v -1.875000 3.762747 -10.000000
v -1.875000 1.499332 -10.000000
v -1.875000 2.249666 -10.000000
v -1.875000 0.748998 -10.000000
v -13.030792 2.155464 -10.004411
v -11.871645 2.228659 -0.354360
v -12.861013 2.162592 -7.870261
v -11.871642 2.228659 -0.354358
v -12.686317 2.169927 -5.674411
v -11.882706 2.495560 -0.354796
v -11.409713 2.516567 -0.000436
v -12.872074 2.429493 -7.870697
v -10.798151 2.516567 -7.500436
v -10.798151 2.516567 -10.000437
v -10.798151 2.516567 -5.000436
v -13.041853 2.422365 -10.004847
v -12.697377 2.436827 -5.674847
v -6.156845 5.399659 -11.271067
v -6.156845 -0.205475 -11.271067
v -8.843155 -0.205475 -11.271067
v -8.843155 5.399659 -11.271067
v -8.171577 -0.205475 -11.271067
v -8.171577 5.399659 -11.271067
v -6.828423 5.399659 -11.271067
v -6.828423 -0.205475 -11.271067
v -4.813690 2.616406 -11.271067
v -6.156845 2.616406 -11.271067
v -8.171577 2.616406 -11.271067
v -7.500000 2.616406 -11.271067
v -4.813690 2.616406 -12.197413
v -6.828423 2.616406 -11.271067
v -10.186311 2.616406 -11.271067
v -8.843155 2.616406 -11.271067
v -1.875000 -1.500668 -10.000000
v -2.500000 -1.500668 -10.000000
v -1.875000 -2.250334 -10.000000
v -1.250000 -2.250334 -10.000000
v -2.500000 -2.250334 -10.000000
v -1.250000 2.249666 -9.377736
v -1.250000 1.499332 -9.377736
v -1.250000 0.748998 -9.377736
v -1.250000 3.000000 -9.377736
v -1.250000 -0.001335 -9.377736
v -1.875000 3.000000 -9.377736
v -1.875000 -0.001335 -9.377736
v -1.875000 1.499332 -9.377736
v -1.875000 2.249666 -9.377736
v -1.875000 0.748998 -9.377736
v -1.875000 -1.500668 -9.377736
v -1.250000 -1.500668 -9.377736
v -1.875000 -2.250334 -9.377736
v -1.250000 -2.250334 -9.377736
v -4.930502 -2.001887 -5.004728
v -4.930502 -2.001887 -0.004729
v -4.930502 -2.001887 4.995271
v -4.930502 -2.001887 -7.504728
v -4.930502 -2.001887 -10.004729
v -2.430502 -2.812046 -0.004729
v -2.430502 -2.812046 4.995271
v -2.430502 -2.812046 -5.004728
v -2.430502 -2.812046 -7.504728
v -2.430502 -2.812046 -10.004729
v -2.202036 -2.712079 7.036020
v -2.430502 -2.812046 9.995272
v -3.391717 -0.605004 11.928474
v -4.930502 -2.001887 -9.599648
v -2.430502 -2.812046 -9.599648
vn -0.0000 0.9488 0.3159
vn 0.5663 -0.6091 0.5552
vn -0.0000 -1.0000 -0.0000
vn 0.7755 0.6153 0.1412
vn 1.0000 -0.0000 -0.0000
vn -0.0073 0.0225 0.9997
vn -1.0000 -0.0000 -0.0000
vn 0.9379 0.3468 -0.0000
vn -0.0000 -0.7087 0.7055
vn 0.9336 0.3474 0.0875
vn -0.0000 0.7329 0.6803
vn 0.3038 -0.9527 -0.0000
vn 0.9479 -0.0000 0.3185
vn 0.2941 -0.9222 0.2511
vn 0.9168 -0.3993 -0.0000
vn -0.0000 1.0000 -0.0000
vn 0.0862 -0.9839 0.1567
vn -0.0000 -0.0000 -1.0000
vn 0.8858 0.3587 -0.2943
vn 0.5488 -0.8359 -0.0000
vn 0.6583 -0.7508 0.0539
vn 0.7292 -0.6828 -0.0461
vn -0.0000 -0.9786 -0.2059
vn 0.1637 0.8911 0.4232
vn 0.9720 -0.1550 0.1768
vn 0.7474 -0.1752 0.6409
vn 0.5516 -0.7235 0.4152
vn 0.5547 -0.3472 0.7562
vn 0.8720 -0.4896 -0.0000
vn 0.6237 -0.7787 -0.0675
vn -0.0000 0.9850 0.1725
vn 0.9762 -0.0000 0.2170
vn -0.8859 -0.0000 -0.4640
vn -0.0000 0.8940 -0.4481
vn -0.0000 0.9884 0.1521
vn 0.0307 0.9991 0.0307
vn 0.1588 0.9443 0.2883
vn 0.1716 0.9045 0.3905
vn 0.9173 -0.0591 0.3939
vn 0.1499 0.1780 0.9725
vn 0.2822 -0.0000 0.9593
vn -0.0000 -0.9384 0.3455
vn -0.9479 -0.0000 0.3185
vn 0.9926 -0.0000 -0.1214
vn -0.9467 0.3221 -0.0000
vn 0.9630 -0.2695 -0.0000
vn -0.0000 0.7830 0.6220
vn -0.0000 -0.4713 -0.8820
vn 0.2884 0.4521 0.8441
vn 0.9006 0.0001 -0.4346
vn -0.9991 0.0414 -0.0000
vn 0.0409 -0.9992 -0.0041
vn 0.0419 -0.9991 -0.0000
vn 0.4813 0.4521 0.7510
vn 0.9084 0.3782 0.1784
vn 0.1165 -0.9464 0.3012
vn -0.9918 0.0413 0.1213
vn -0.0020 -0.0000 -1.0000
vn 0.3850 0.0566 0.9212
vn 0.9960 -0.0411 0.0794
vn 0.4330 0.3912 0.8121
vn 0.3420 0.5114 0.7884
vn 0.4043 0.5114 0.7583
vn 0.3663 0.3912 0.8443
vn 0.3856 0.2471 0.8889
vn 0.4559 0.2471 0.8550
vn -0.1633 0.9464 -0.2786
vn -0.9006 -0.0000 0.4346
vn 0.8262 -0.0000 -0.5633
vn 0.2668 0.9638 -0.0000
vn 0.2668 -0.9638 -0.0000
vn 0.9992 -0.0000 0.0393
vn -0.2238 0.9556 0.1916
vn 0.1498 0.9801 0.1301
vn -0.5145 -0.8575 -0.0000
vn 0.3032 0.2194 0.9273
vn 0.8930 -0.0000 0.4500
vn -0.2238 -0.9556 0.1916
vn 0.2529 -0.9494 0.1864
vn 0.5119 0.1398 0.8476
vn 0.0457 -0.9990 0.0018
vn 0.7726 -0.0000 0.6348
vn 0.1604 -0.9724 0.1693
vn 0.0410 0.9992 -0.0040
vn 0.0419 0.9991 -0.0000
vn 0.0403 0.9992 -0.0049
vn 0.5987 -0.0235 0.8006
vn -0.0020 -0.0016 -1.0000
vn 0.9876 -0.0407 0.1517
vn 0.9367 0.3448 -0.0607
vn 0.3083 -0.9513 -0.0000
vn 0.5622 -0.8104 0.1649
vn -0.9379 -0.3468 -0.0000
vn 0.7218 0.2507 -0.6451
vn -0.9281 -0.3466 -0.1362
vn -0.5663 -0.6091 0.5552
vn -0.7755 0.6153 0.1412
vn 0.0073 0.0225 0.9997
vn -0.9379 0.3468 -0.0000
vn -0.9336 0.3474 0.0875
vn -0.3038 -0.9527 -0.0000
vn -0.2941 -0.9222 0.2511
vn -0.9168 -0.3993 -0.0000
vn -0.0862 -0.9839 0.1567
vn -0.8858 0.3587 -0.2943
vn -0.5488 -0.8359 -0.0000
vn -0.6583 -0.7508 0.0539
vn -0.7292 -0.6828 -0.0461
vn -0.1637 0.8911 0.4232
vn -0.9720 -0.1550 0.1768
vn -0.7474 -0.1752 0.6409
vn -0.5516 -0.7235 0.4152
vn -0.5547 -0.3472 0.7562
vn -0.8720 -0.4896 -0.0000
vn -0.6237 -0.7787 -0.0675
vn -0.9762 -0.0000 0.2170
vn 0.8859 -0.0000 -0.4640
vn -0.0307 0.9991 0.0307
vn -0.1588 0.9443 0.2883
vn -0.1716 0.9045 0.3905
vn -0.9173 -0.0591 0.3939
vn -0.1499 0.1780 0.9725
vn -0.2822 -0.0000 0.9593
vn -0.9926 -0.0000 -0.1214
vn 0.9467 0.3221 -0.0000
vn -0.9630 -0.2695 -0.0000
vn -0.2884 0.4521 0.8441
vn -0.9006 0.0001 -0.4346
vn 0.9991 0.0414 -0.0000
vn -0.0409 -0.9992 -0.0041
vn -0.0419 -0.9991 -0.0000
vn -0.4813 0.4521 0.7510
vn -0.9084 0.3782 0.1784
vn -0.1165 -0.9464 0.3012
vn 0.9918 0.0413 0.1213
vn 0.0020 -0.0000 -1.0000
vn -0.3850 0.0566 0.9212
vn -0.9960 -0.0411 0.0794
vn -0.4330 0.3912 0.8121
vn -0.3420 0.5114 0.7884
vn -0.4043 0.5114 0.7583
vn -0.3663 0.3912 0.8443
vn -0.3856 0.2471 0.8889
vn -0.4559 0.2471 0.8550
vn 0.1633 0.9464 -0.2786
vn 0.9006 -0.0000 0.4346
vn -0.8262 -0.0000 -0.5633
vn -0.2668 0.9638 -0.0000
vn -0.2668 -0.9638 -0.0000
vn -0.9992 -0.0000 0.0393
vn 0.2238 0.9556 0.1916
vn -0.1498 0.9801 0.1301
vn 0.4980 -0.8493 0.1752
vn -0.3032 0.2194 0.9273
vn -0.8930 -0.0000 0.4500
vn 0.2238 -0.9556 0.1916
vn -0.2529 -0.9494 0.1864
vn -0.5119 0.1398 0.8476
vn -0.0457 -0.9990 0.0018
vn -0.7726 -0.0000 0.6348
vn -0.1604 -0.9724 0.1693
vn -0.0410 0.9992 -0.0040
vn -0.0419 0.9991 -0.0000
vn -0.0403 0.9992 -0.0049
vn -0.5987 -0.0235 0.8006
vn 0.0020 -0.0016 -1.0000
vn -0.9876 -0.0407 0.1517
vn -0.9367 0.3448 -0.0607
vn -0.3083 -0.9513 -0.0000
vn -0.5622 -0.8104 0.1649
vn 0.9379 -0.3468 -0.0000
vn -0.7218 0.2507 -0.6451
vn 0.9281 -0.3466 -0.1362
vt 0.656250 0.500000
vt 0.625000 0.500000
vt 0.499944 0.812500
vt 0.625000 0.812500
vt 0.499944 0.812500
vt 0.343750 0.562500
vt 0.375000 0.562500
vt 0.375000 0.625000
vt 0.343750 0.625000
vt 0.718750 0.750000
vt 0.718750 0.625000
vt 0.718750 0.562500
vt 0.625000 0.687500
vt 0.625000 0.625000
vt 0.375000 0.406250
vt 0.375000 0.437500
vt 0.499944 0.437500
vt 0.281250 0.625000
vt 0.281250 0.562500
vt 0.499944 0.875000
vt 0.499944 0.843750
vt 0.375000 0.687500
vt 0.343750 0.687500
vt 0.281250 0.718750
vt 0.281250 0.687500
vt 0.687500 0.687500
vt 0.656250 0.687500
vt 0.718750 0.531250
vt 0.343750 0.531250
vt 0.375000 0.531250
vt 0.312500 0.531250
vt 0.312500 0.562500
vt 0.625000 0.562500
vt 0.312500 0.625000
vt 0.312500 0.687500
vt 0.625000 0.531250
vt 0.531208 0.500000
vt 0.499944 0.500000
vt 0.531208 0.500000
vt 0.343750 0.718750
vt 0.281250 0.750000
vt 0.312500 0.750000
vt 0.640625 0.718750
vt 0.625000 0.718750
vt 0.375000 0.718750
vt 0.593736 0.500000
vt 0.593736 0.500000
vt 0.687500 0.531250
vt 0.687500 0.562500
vt 0.312500 0.500000
vt 0.343750 0.500000
vt 0.375000 0.500000
vt 0.499944 0.562500
vt 0.499944 0.531250
vt 0.625000 0.406250
vt 0.625000 0.398438
vt 0.687500 0.500000
vt 0.718750 0.718750
vt 0.718750 0.687500
vt 0.687500 0.718750
vt 0.687500 0.625000
vt 0.375000 0.375000
vt 0.375000 0.390625
vt 0.375000 0.398438
vt 0.281250 0.500000
vt 0.281250 0.531250
vt 0.750000 0.750000
vt 0.625000 0.843750
vt 0.718750 0.500000
vt 0.250000 0.750000
vt 0.375000 0.843750
vt 0.375000 0.875000
vt 0.406236 0.375000
vt 0.406236 0.390625
vt 0.499944 0.718750
vt 0.499944 0.718750
vt 0.499944 0.687500
vt 0.499944 0.468750
vt 0.375000 0.468750
vt 0.499944 0.625000
vt 0.531208 0.437500
vt 0.531208 0.437500
vt 0.656250 0.562500
vt 0.656250 0.625000
vt 0.656250 0.531250
vt 0.632812 0.625000
vt 0.632812 0.531250
vt 0.750000 0.562500
vt 0.750000 0.625000
vt 0.750000 0.718750
vt 0.750000 0.687500
vt 0.750000 0.531250
vt 0.726562 0.500000
vt 0.734375 0.500000
vt 0.750000 0.500000
vt 0.625000 0.875000
vt 0.593736 0.437500
vt 0.625000 0.437500
vt 0.609368 0.437500
vt 0.593736 0.437500
vt 0.593736 0.437500
vt 0.609368 0.437500
vt 0.499944 0.453125
vt 0.499944 0.460938
vt 0.640625 0.500000
vt 0.648438 0.500000
vt 0.531208 0.500000
vt 0.664062 0.500000
vt 0.671875 0.500000
vt 0.499944 0.476562
vt 0.499944 0.484375
vt 0.593736 0.562500
vt 0.593736 0.625000
vt 0.593736 0.531250
vt 0.593736 0.406250
vt 0.499944 0.406250
vt 0.406236 0.406250
vt 0.437472 0.406250
vt 0.632812 0.562500
vt 0.656250 0.718750
vt 0.593736 0.718750
vt 0.562472 0.718750
vt 0.531208 0.406250
vt 0.562472 0.406250
vt 0.562472 0.437500
vt 0.531208 0.625000
vt 0.531208 0.562500
vt 0.531208 0.531250
vt 0.593736 0.500000
vt 0.562472 0.500000
vt 0.562472 0.500000
vt 0.531208 0.437500
vt 0.562472 0.437500
vt 0.562472 0.437500
vt 0.531208 0.437500
vt 0.531208 0.718750
vt 0.531208 0.812500
vt 0.562472 0.812500
vt 0.593736 0.812500
vt 0.609368 0.500000
vt 0.593736 0.398438
vt 0.562472 0.398438
vt 0.609365 0.718750
vt 0.593736 0.718750
vt 0.562472 0.718750
vt 0.562472 0.687500
vt 0.531208 0.687500
vt 0.593736 0.687500
vt 0.593736 0.718750
vt 0.624994 0.687500
vt 0.531208 0.664660
vt 0.543620 0.718750
vt 0.250000 0.500000
vt 0.250000 0.531250
vt 0.250000 0.687500
vt 0.250000 0.718750
vt 0.250000 0.562500
vt 0.250000 0.625000
vt 0.625000 0.390625
vt 0.625000 0.375000
vt 0.406236 0.398438
vt 0.531208 0.398438
vt 0.499944 0.398438
vt 0.625000 0.468750
vt 0.625000 0.476562
vt 0.625000 0.484375
vt 0.609368 0.484375
vt 0.609368 0.476562
vt 0.609368 0.468750
vt 0.609368 0.453125
vt 0.609368 0.460938
vt 0.593736 0.468750
vt 0.562472 0.468750
vt 0.531208 0.468750
vt 0.625000 0.453125
vt 0.625000 0.460938
vt 0.593736 0.375000
vt 0.593736 0.390625
vt 0.437472 0.398438
vt 0.531208 0.375000
vt 0.562472 0.375000
vt 0.562472 0.390625
vt 0.531208 0.390625
vt 0.499944 0.375000
vt 0.499944 0.390625
vt 0.437472 0.390625
vt 0.437472 0.375000
s 0
f 68/1/1 69/2/1 100/2/1 101/1/1
f 56/3/2 38/4/2 36/5/2
f 27/6/3 17/7/3 4/8/3 23/9/3
f 38/10/4 29/10/4 93/10/4
f 44/11/5 48/12/5 92/12/5 90/11/5
f 13/13/5 5/14/5 139/14/5 70/14/5 74/13/5
f 134/15/6 133/16/6 345/16/6 346/15/6
f 59/17/7 11/16/7 133/16/7 132/17/7
f 41/18/8 47/19/8 339/19/8 337/18/8
f 66/20/9 67/21/9 50/21/9 53/20/9
f 23/9/3 4/8/3 14/22/3 25/23/3
f 49/24/10 45/25/10 338/25/10 342/24/10
f 15/26/11 24/27/11 76/27/11 75/26/11
f 48/12/5 51/28/5 94/28/5 92/12/5
f 35/29/3 31/30/3 17/7/3 27/6/3
f 34/31/12 35/29/12 27/6/12 21/32/12
f 140/33/5 139/14/5 5/14/5 18/33/5
f 12/34/12 23/9/12 25/23/12 16/35/12
f 32/36/5 3/2/5 69/2/5 77/36/5 141/36/5
f 168/37/13 57/38/13 103/38/13 171/39/13
f 21/32/12 27/6/12 23/9/12 12/34/12
f 69/2/13 3/2/13 98/2/13 100/2/13
f 16/35/14 25/23/14 36/40/14
f 43/41/15 36/42/15 37/41/15
f 151/43/16 28/44/16 13/13/16 24/27/16
f 25/23/17 14/22/17 30/45/17 36/40/17
f 186/46/18 3/2/18 125/2/18 196/47/18
f 33/48/7 20/49/7 72/49/7 78/48/7
f 11/50/12 22/51/12 35/29/12 34/31/12
f 22/51/3 2/52/3 31/30/3 35/29/3
f 61/53/3 64/54/3 129/54/3 128/53/3
f 42/55/18 269/56/18 272/56/18 89/55/18
f 9/57/7 33/48/7 78/48/7 80/57/7
f 29/58/19 46/59/19 91/59/19 93/58/19
f 43/41/20 37/41/20 266/41/20 267/41/20
f 133/16/8 11/16/8 336/16/8 345/16/8
f 15/26/16 46/59/16 29/60/16
f 47/19/20 41/18/20 254/18/20 262/19/20
f 45/25/21 49/24/21 263/24/21 260/25/21
f 33/48/16 51/28/16 48/12/16 20/49/16
f 49/24/22 43/41/22 267/41/22 263/24/22
f 10/61/16 44/11/16 46/59/16 15/26/16
f 6/62/23 268/63/23 271/64/23 39/15/23 252/15/23 253/62/23
f 39/65/20 52/66/20 264/66/20 252/65/20
f 41/18/20 45/25/20 260/25/20 254/18/20
f 20/49/16 48/12/16 44/11/16 10/61/16
f 38/10/24 96/67/24 95/67/24 40/10/24
f 36/5/25 38/68/25 67/21/25
f 51/28/5 42/69/5 89/69/5 94/28/5
f 1/70/26 37/41/26 36/41/26 55/70/26
f 36/71/27 67/21/27 66/20/27 55/72/27
f 6/62/18 310/73/18 308/74/18 268/63/18
f 30/45/28 63/75/28 152/75/28 56/76/28 36/45/28
f 2/52/29 57/38/29 64/54/29 31/30/29
f 14/22/30 60/77/30 63/75/30 30/45/30
f 11/16/18 59/17/18 62/78/18 22/79/18
f 31/30/29 64/54/29 61/53/29 17/7/29
f 4/8/29 58/80/29 60/77/29 14/22/29
f 169/81/7 59/17/7 132/17/7 182/82/7
f 17/7/29 61/53/29 58/80/29 4/8/29
f 22/79/18 62/78/18 57/38/18 2/52/18
f 79/83/16 72/49/16 73/61/16 71/84/16
f 71/84/31 73/61/31 75/26/31 76/27/31
f 81/85/16 78/48/16 72/49/16 79/83/16
f 70/14/32 139/14/32 148/14/32 143/14/32
f 70/14/31 137/86/31 71/84/31 76/27/31 74/13/31
f 141/36/33 77/36/33 145/36/33 150/36/33
f 69/2/16 68/1/16 81/85/16 138/87/16 77/36/16
f 68/1/16 80/57/16 78/48/16 81/85/16
f 24/27/11 13/13/11 74/13/11 76/27/11
f 20/49/7 10/61/7 73/61/7 72/49/7
f 10/61/7 15/26/7 75/26/7 73/61/7
f 80/57/1 68/1/1 101/1/1 102/57/1
f 92/12/34 83/88/34 84/89/34 90/11/34
f 93/58/35 85/90/35 82/67/35
f 90/11/16 84/89/16 86/91/16 91/59/16
f 94/28/16 87/92/16 83/88/16 92/12/16
f 91/59/36 86/91/36 85/90/36 93/58/36
f 89/69/16 272/93/16 19/94/16 88/95/16 87/92/16 94/28/16
f 93/10/37 82/67/37 26/67/37 38/10/37
f 38/10/38 26/67/38 96/67/38
f 46/59/5 44/11/5 90/11/5 91/59/5
f 67/21/39 38/68/39 40/68/39 50/21/39
f 50/21/40 40/68/40 54/96/40 53/20/40
f 54/96/41 40/68/41 95/96/41
f 99/57/18 102/57/18 110/57/18 107/57/18
f 190/97/18 99/98/18 107/98/18 301/99/18 192/100/18
f 105/78/18 104/17/18 112/17/18 113/78/18
f 101/1/18 100/2/18 108/2/18 109/1/18
f 62/78/42 59/17/42 104/17/42 105/78/42
f 187/101/43 9/98/43 99/98/43 190/97/43
f 57/38/42 62/78/42 105/78/42 103/38/42
f 9/57/43 80/57/43 102/57/43 99/57/43
f 192/100/5 301/99/5 297/102/5 194/101/5
f 113/78/16 112/17/16 120/17/16 290/103/16 296/104/16 121/78/16
f 109/1/3 108/2/3 116/2/3 292/105/3 294/106/3 117/1/3
f 173/107/7 111/38/7 119/38/7 175/107/7
f 100/2/18 98/2/18 106/2/18 108/2/18
f 102/57/18 101/1/18 109/1/18 110/57/18
f 103/38/18 105/78/18 113/78/18 111/38/18
f 171/39/18 103/38/18 111/38/18 173/107/18
f 107/57/5 110/57/5 118/57/5 115/57/5
f 108/2/7 106/2/7 114/2/7 116/2/7
f 110/57/3 109/1/3 117/1/3 295/108/3 289/109/3 118/57/3
f 111/38/16 113/78/16 121/78/16 293/110/16 291/111/16 119/38/16
f 198/112/44 122/33/44 123/14/44 197/113/44
f 199/114/5 124/36/5 122/33/5 198/112/5
f 196/47/5 125/2/5 124/36/5 199/114/5
f 3/2/16 32/36/16 124/36/16 125/2/16
f 60/77/3 58/80/3 127/80/3 63/77/3
f 5/14/16 13/13/16 28/13/16 123/14/16
f 18/33/16 5/14/16 123/14/16 122/33/16
f 32/36/16 18/33/16 122/33/16 124/36/16
f 64/54/3 57/38/3 126/38/3 129/54/3
f 58/80/3 61/53/3 128/53/3 127/80/3
f 201/115/18 130/55/18 131/98/18 200/101/18
f 134/15/18 135/116/18 132/17/18 133/16/18
f 39/15/5 309/117/5 306/118/5 65/116/5 135/116/5 134/15/5
f 188/115/5 42/55/5 130/55/5 201/115/5
f 9/57/16 131/57/16 130/69/16 42/69/16 51/28/16 33/48/16
f 136/119/16 138/87/16 81/85/16 79/83/16
f 141/36/5 140/33/5 18/33/5 32/36/5
f 145/36/16 147/87/16 146/119/16 142/33/16
f 136/119/45 137/86/45 144/86/45 146/119/45
f 139/14/46 140/33/46 149/33/46 148/14/46
f 142/33/16 146/119/16 144/86/16 143/14/16
f 149/33/5 150/36/5 145/36/5 142/33/5
f 148/14/5 149/33/5 142/33/5 143/14/5
f 137/86/47 70/14/47 143/14/47 144/86/47
f 77/36/48 138/87/48 147/87/48 145/36/48
f 138/87/45 136/119/45 146/119/45 147/87/45
f 140/33/46 141/36/46 150/36/46 149/33/46
f 137/86/16 136/119/16 79/83/16 71/84/16
f 24/27/16 15/26/16 29/120/16 151/43/16
f 203/121/49 151/44/49 29/44/49 202/121/49 217/121/49
f 217/121/50 219/122/50 228/122/50 226/121/50
f 170/123/5 156/124/5 166/124/5 183/123/5
f 183/123/18 166/124/18 165/125/18 182/82/18
f 196/47/51 199/114/51 284/114/51 285/47/51
f 179/126/52 180/127/52 212/127/52 211/126/52
f 181/128/53 178/107/53 210/107/53 213/128/53
f 189/129/18 157/130/18 159/131/18 191/47/18
f 191/47/7 159/131/7 161/131/7 193/47/7
f 174/132/5 160/133/5 162/125/5 176/82/5
f 169/81/43 154/125/43 158/134/43 172/135/43
f 172/135/18 158/134/18 160/133/18 174/132/18
f 187/101/7 154/125/7 165/125/7 200/101/7
f 168/37/18 153/131/18 164/131/18 178/107/18
f 186/46/13 153/131/13 157/130/13 189/129/13
f 57/38/18 168/37/18 178/107/18 126/38/18
f 308/74/16 310/73/16 331/73/16 330/74/16
f 104/17/18 172/135/18 174/132/18 112/17/18
f 59/17/43 169/81/43 172/135/43 104/17/43
f 112/17/5 174/132/5 176/82/5 120/17/5
f 128/53/44 180/127/44 179/126/44 127/80/44
f 129/54/5 181/128/5 180/127/5 128/53/5
f 126/38/5 178/107/5 181/128/5 129/54/5
f 135/116/18 183/123/18 182/82/18 132/17/18
f 65/116/5 170/123/5 183/123/5 135/116/5
f 152/75/54 185/136/54 218/136/54 184/136/54 56/76/54
f 157/130/18 171/39/18 173/107/18 159/131/18
f 159/131/7 173/107/7 175/107/7 161/131/7
f 154/125/7 169/81/7 182/82/7 165/125/7
f 153/131/13 168/37/13 171/39/13 157/130/13
f 184/137/55 167/138/55 202/139/55 29/4/55 38/4/55 56/3/55
f 3/2/13 186/46/13 189/129/13 98/2/13
f 9/98/7 187/101/7 200/101/7 131/98/7
f 106/2/7 191/47/7 193/47/7 303/140/7 114/2/7
f 98/2/18 189/129/18 191/47/18 106/2/18
f 203/121/56 217/121/56 226/121/56 220/121/56
f 156/124/5 188/115/5 201/115/5 166/124/5
f 166/124/18 201/115/18 200/101/18 165/125/18
f 198/112/57 197/113/57 282/113/57 286/112/57
f 180/127/53 181/128/53 213/128/53 212/127/53
f 164/131/58 196/47/58 276/47/58 205/47/58 206/131/58
f 160/133/5 192/100/5 194/101/5 162/125/5
f 154/125/43 187/101/43 190/97/43 158/134/43
f 158/134/18 190/97/18 192/100/18 160/133/18
f 274/141/7 273/142/7 323/142/7 324/141/7
f 153/131/18 186/46/18 196/47/18 164/131/18
f 178/107/58 164/131/58 206/131/58 210/107/58
f 243/143/59 214/144/59 215/122/59 155/122/59 241/122/59
f 280/112/60 278/114/60 283/114/60 288/112/60
f 214/144/56 203/121/56 220/121/56 225/144/56
f 219/122/50 218/136/50 227/136/50 228/122/50
f 223/136/61 221/122/61 228/122/61 227/136/61
f 219/122/62 217/121/62 202/121/62 167/145/62
f 218/136/63 219/122/63 167/145/63 184/136/63
f 221/122/64 220/121/64 226/121/64 228/122/64
f 222/122/65 225/144/65 220/121/65 221/122/65
f 224/136/66 222/122/66 221/122/66 223/136/66
f 218/136/67 185/136/67 223/136/67 227/136/67
f 185/136/67 216/136/67 224/136/67 223/136/67
f 216/136/68 215/122/68 222/122/68 224/136/68
f 215/122/68 214/144/68 225/144/68 222/122/68
f 206/131/69 205/47/69 231/47/69 232/131/69
f 234/107/5 232/131/5 230/146/5 233/147/5 236/126/5 235/127/5 237/128/5
f 205/47/70 209/114/70 238/114/70 231/47/70
f 209/114/70 208/112/70 239/112/70 238/114/70
f 212/127/71 213/128/71 237/128/71 235/127/71
f 210/107/69 206/131/69 232/131/69 234/107/69
f 213/128/71 210/107/71 234/107/71 237/128/71
f 211/126/71 212/127/71 235/127/71 236/126/71
f 208/112/70 207/113/70 240/113/70 239/112/70
f 230/146/5 232/131/5 231/47/5 238/114/5 239/112/5 240/113/5 229/148/5
f 241/122/72 242/121/72 243/143/72
f 244/113/73 245/148/73 246/148/73
f 244/121/74 279/149/74 242/121/74 241/122/74 245/122/74
f 241/122/16 155/122/16 204/122/16 245/122/16
f 197/113/75 242/113/75 279/113/75 244/113/75 207/113/75 277/113/75
f 243/143/76 28/44/76 151/44/76 203/121/76 214/144/76
f 197/113/72 123/14/72 28/13/72 243/150/72 242/113/72
f 246/121/77 245/122/77 204/122/77 230/122/77 229/121/77
f 207/113/70 244/113/70 246/148/70 229/148/70 240/113/70
f 249/147/78 250/126/78 251/147/78
f 249/147/79 248/147/79 247/151/79 250/126/79
f 63/75/80 248/152/80 155/122/80 215/122/80 216/136/80 185/136/80 152/75/80
f 247/151/81 179/126/81 211/126/81 250/126/81
f 155/122/82 248/152/82 249/122/82 204/122/82
f 247/136/72 248/152/72 63/77/72 127/80/72 179/126/72
f 204/122/77 249/122/77 251/136/77 233/136/77 230/122/77
f 251/147/71 250/126/71 211/126/71 236/126/71 233/147/71
f 253/153/3 252/65/3 264/66/3 261/154/3
f 259/155/3 260/25/3 263/24/3 257/156/3
f 258/70/3 267/41/3 266/41/3 265/70/3
f 261/154/3 264/66/3 262/19/3 256/157/3
f 255/158/3 254/18/3 260/25/3 259/155/3
f 257/156/3 263/24/3 267/41/3 258/70/3
f 256/157/3 262/19/3 254/18/3 255/158/3
f 37/41/83 1/70/83 265/70/83 266/41/83
f 52/66/20 47/19/20 262/19/20 264/66/20
f 19/159/18 8/159/18 7/160/18 88/160/18
f 307/161/16 308/74/16 330/74/16 329/161/16
f 268/63/18 308/74/18 307/161/18 271/64/18
f 8/159/3 269/56/3 321/56/3 319/159/3
f 275/162/7 270/163/7 322/163/7 325/162/7
f 7/160/3 8/159/3 319/159/3 318/160/3
f 270/163/18 275/162/18 170/123/18 65/116/18
f 273/142/18 274/141/18 188/115/18 156/124/18
f 275/162/18 273/142/18 156/124/18 170/123/18
f 271/64/18 307/161/18 309/117/18 39/15/18
f 272/56/18 269/56/18 8/159/18 19/159/18
f 274/141/18 269/56/18 42/55/18 188/115/18
f 280/112/84 277/113/84 207/113/84 208/112/84
f 278/114/85 280/112/85 208/112/85 209/114/85
f 276/47/85 278/114/85 209/114/85 205/47/85
f 286/112/86 282/113/86 281/113/86 288/112/86
f 284/114/85 286/112/85 288/112/85 283/114/85
f 285/47/85 284/114/85 283/114/85 287/47/85
f 197/113/87 277/113/87 281/113/87 282/113/87
f 276/47/88 196/47/88 285/47/88 287/47/88
f 278/114/60 276/47/60 287/47/60 283/114/60
f 277/113/89 280/112/89 288/112/89 281/113/89
f 199/114/51 198/112/51 286/112/51 284/114/51
f 97/164/18 117/164/18 294/165/18 292/166/18 116/2/18 114/2/18 303/140/18 304/167/18 299/168/18 300/169/18
f 194/101/18 297/102/18 298/170/18 302/171/18 300/169/18 195/172/18 163/173/18 177/174/18 121/78/18 296/104/18 290/103/18 120/17/18 176/82/18 162/125/18
f 195/172/18 300/169/18 299/168/18 304/167/18 303/140/18 193/47/18 161/131/18 175/107/18 119/38/18 291/111/18 293/110/18 121/78/18 177/174/18 163/173/18
f 302/171/18 298/170/18 297/102/18 115/98/18 118/98/18 289/175/18 295/176/18 117/164/18 97/164/18 300/169/18
f 297/102/5 301/99/5 107/98/5 115/98/5
f 311/177/18 318/160/18 319/159/18 312/178/18
f 269/56/7 274/141/7 324/141/7 321/56/7
f 270/163/7 305/179/7 326/179/7 322/163/7
f 306/118/18 305/179/18 270/163/18 65/116/18
f 305/179/7 307/161/7 329/161/7 326/179/7
f 273/142/7 275/162/7 325/162/7 323/142/7
f 309/117/18 307/161/18 305/179/18 306/118/18
f 315/180/18 313/181/18 314/182/18 316/183/18
f 317/184/18 315/180/18 316/183/18 320/185/18
f 313/181/18 311/177/18 312/178/18 314/182/18
f 316/183/18 314/182/18 323/142/18 325/162/18
f 312/178/18 319/159/18 321/56/18 324/141/18
f 320/185/18 316/183/18 325/162/18 322/163/18
f 314/182/18 312/178/18 324/141/18 323/142/18
f 326/179/18 327/186/18 320/185/18 322/163/18
f 327/186/18 328/187/18 317/184/18 320/185/18
f 329/161/18 330/74/18 327/186/18 326/179/18
f 330/74/18 331/73/18 328/187/18 327/186/18
f 43/41/90 49/24/90 342/24/90 343/41/90
f 339/19/91 332/32/91 333/34/91 337/18/91
f 337/18/91 333/34/91 334/35/91 338/25/91
f 340/66/91 335/31/91 332/32/91 339/19/91
f 341/65/91 346/65/91 345/50/91 336/50/91 335/31/91 340/66/91
f 338/25/92 334/35/92 344/42/92 343/41/92 342/24/92
f 11/50/93 34/31/93 335/31/93 336/50/93
f 36/42/94 43/41/94 343/41/94 344/42/94
f 39/15/93 134/15/93 346/15/93 341/15/93
f 34/31/93 21/32/93 332/32/93 335/31/93
f 16/35/95 36/40/95 344/40/95 334/35/95
f 47/19/8 52/66/8 340/66/8 339/19/8
f 45/25/8 41/18/8 337/18/8 338/25/8
f 52/66/8 39/65/8 341/65/8 340/66/8
f 12/34/93 16/35/93 334/35/93 333/34/93
f 21/32/93 12/34/93 333/34/93 332/32/93
f 406/1/1 430/1/1 429/2/1 407/2/1
f 395/3/96 378/5/96 380/4/96
f 369/6/3 366/9/3 349/8/3 360/7/3
f 380/10/97 424/10/97 371/10/97
f 386/11/7 421/11/7 423/12/7 390/12/7
f 356/13/7 412/13/7 408/14/7 468/14/7 350/14/7
f 463/15/98 659/15/98 658/16/98 462/16/98
f 398/17/5 461/17/5 462/16/5 354/16/5
f 383/18/99 650/18/99 652/19/99 389/19/99
f 66/20/9 53/20/9 392/21/9 405/21/9
f 366/9/3 368/23/3 357/22/3 349/8/3
f 391/24/100 655/24/100 651/25/100 387/25/100
f 358/26/11 413/26/11 414/27/11 367/27/11
f 390/12/7 423/12/7 425/28/7 393/28/7
f 377/29/3 369/6/3 360/7/3 373/30/3
f 376/31/101 364/32/101 369/6/101 377/29/101
f 469/33/7 361/33/7 350/14/7 468/14/7
f 355/34/101 359/35/101 368/23/101 366/9/101
f 374/36/7 470/36/7 415/36/7 407/2/7 348/2/7
f 497/37/43 500/39/43 432/38/43 396/38/43
f 364/32/101 355/34/101 366/9/101 369/6/101
f 407/2/43 429/2/43 427/2/43 348/2/43
f 359/35/102 378/40/102 368/23/102
f 385/41/103 379/41/103 378/42/103
f 480/43/16 367/27/16 356/13/16 370/44/16
f 368/23/104 378/40/104 372/45/104 357/22/104
f 515/46/18 525/47/18 454/2/18 348/2/18
f 375/48/5 416/48/5 410/49/5 363/49/5
f 354/50/101 376/31/101 377/29/101 365/51/101
f 365/51/3 377/29/3 373/30/3 347/52/3
f 400/53/3 457/53/3 458/54/3 403/54/3
f 384/55/18 420/55/18 593/56/18 590/56/18
f 352/57/5 418/57/5 416/48/5 375/48/5
f 371/58/105 424/58/105 422/59/105 388/59/105
f 385/41/106 588/41/106 587/41/106 379/41/106
f 462/16/99 658/16/99 649/16/99 354/16/99
f 358/26/16 371/60/16 388/59/16
f 389/19/106 584/19/106 582/18/106 383/18/106
f 387/25/107 583/25/107 585/24/107 391/24/107
f 375/48/16 363/49/16 390/12/16 393/28/16
f 391/24/108 585/24/108 588/41/108 385/41/108
f 353/61/16 358/26/16 388/59/16 386/11/16
f 6/62/23 253/62/23 581/15/23 381/15/23 592/64/23 589/63/23
f 381/65/106 581/65/106 586/66/106 394/66/106
f 383/18/106 582/18/106 583/25/106 387/25/106
f 363/49/16 353/61/16 386/11/16 390/12/16
f 380/10/109 382/10/109 95/67/109 96/67/109
f 378/5/110 405/21/110 380/68/110
f 393/28/7 425/28/7 420/69/7 384/69/7
f 1/70/111 55/70/111 378/41/111 379/41/111
f 378/71/112 55/72/112 66/20/112 405/21/112
f 6/62/18 589/63/18 629/74/18 310/73/18
f 372/45/113 378/45/113 395/76/113 481/75/113 402/75/113
f 347/52/114 373/30/114 403/54/114 396/38/114
f 357/22/115 372/45/115 402/75/115 399/77/115
f 354/16/18 365/79/18 401/78/18 398/17/18
f 373/30/114 360/7/114 400/53/114 403/54/114
f 349/8/114 357/22/114 399/77/114 397/80/114
f 498/81/5 511/82/5 461/17/5 398/17/5
f 360/7/114 349/8/114 397/80/114 400/53/114
f 365/79/18 347/52/18 396/38/18 401/78/18
f 417/83/16 409/84/16 411/61/16 410/49/16
f 409/84/31 414/27/31 413/26/31 411/61/31
f 419/85/16 417/83/16 410/49/16 416/48/16
f 408/14/116 472/14/116 477/14/116 468/14/116
f 408/14/31 412/13/31 414/27/31 409/84/31 466/86/31
f 470/36/117 479/36/117 474/36/117 415/36/117
f 407/2/16 415/36/16 467/87/16 419/85/16 406/1/16
f 406/1/16 419/85/16 416/48/16 418/57/16
f 367/27/11 414/27/11 412/13/11 356/13/11
f 363/49/5 410/49/5 411/61/5 353/61/5
f 353/61/5 411/61/5 413/26/5 358/26/5
f 418/57/1 431/57/1 430/1/1 406/1/1
f 423/12/34 421/11/34 84/89/34 83/88/34
f 424/58/35 82/67/35 85/90/35
f 421/11/16 422/59/16 86/91/16 84/89/16
f 425/28/16 423/12/16 83/88/16 87/92/16
f 422/59/118 424/58/118 85/90/118 86/91/118
f 420/69/16 425/28/16 87/92/16 88/95/16 362/94/16 593/93/16
f 424/10/119 380/10/119 26/67/119 82/67/119
f 380/10/120 96/67/120 26/67/120
f 388/59/7 422/59/7 421/11/7 386/11/7
f 405/21/121 392/21/121 382/68/121 380/68/121
f 392/21/122 53/20/122 54/96/122 382/68/122
f 54/96/123 95/96/123 382/68/123
f 428/57/18 436/57/18 439/57/18 431/57/18
f 519/97/18 521/100/18 622/99/18 436/98/18 428/98/18
f 434/78/18 442/78/18 441/17/18 433/17/18
f 430/1/18 438/1/18 437/2/18 429/2/18
f 401/78/42 434/78/42 433/17/42 398/17/42
f 516/101/13 519/97/13 428/98/13 352/98/13
f 396/38/42 432/38/42 434/78/42 401/78/42
f 352/57/13 428/57/13 431/57/13 418/57/13
f 521/100/7 523/101/7 618/102/7 622/99/7
f 442/78/16 450/78/16 617/104/16 611/103/16 449/17/16 441/17/16
f 438/1/3 446/1/3 615/106/3 613/105/3 445/2/3 437/2/3
f 502/107/5 504/107/5 448/38/5 440/38/5
f 429/2/18 437/2/18 435/2/18 427/2/18
f 431/57/18 439/57/18 438/1/18 430/1/18
f 432/38/18 440/38/18 442/78/18 434/78/18
f 500/39/18 502/107/18 440/38/18 432/38/18
f 436/57/7 444/57/7 447/57/7 439/57/7
f 437/2/5 445/2/5 443/2/5 435/2/5
f 439/57/3 447/57/3 610/109/3 616/108/3 446/1/3 438/1/3
f 440/38/16 448/38/16 612/111/16 614/110/16 450/78/16 442/78/16
f 527/112/124 526/113/124 452/14/124 451/33/124
f 528/114/7 527/112/7 451/33/7 453/36/7
f 525/47/7 528/114/7 453/36/7 454/2/7
f 348/2/16 454/2/16 453/36/16 374/36/16
f 399/77/3 402/77/3 456/80/3 397/80/3
f 350/14/16 452/14/16 370/13/16 356/13/16
f 361/33/16 451/33/16 452/14/16 350/14/16
f 374/36/16 453/36/16 451/33/16 361/33/16
f 403/54/3 458/54/3 455/38/3 396/38/3
f 397/80/3 456/80/3 457/53/3 400/53/3
f 530/115/18 529/101/18 460/98/18 459/55/18
f 463/15/18 462/16/18 461/17/18 464/116/18
f 381/15/7 463/15/7 464/116/7 404/116/7 627/118/7 630/117/7
f 517/115/7 530/115/7 459/55/7 384/55/7
f 352/57/16 375/48/16 393/28/16 384/69/16 459/69/16 460/57/16
f 465/119/16 417/83/16 419/85/16 467/87/16
f 470/36/7 374/36/7 361/33/7 469/33/7
f 474/36/16 471/33/16 475/119/16 476/87/16
f 465/119/125 475/119/125 473/86/125 466/86/125
f 468/14/126 477/14/126 478/33/126 469/33/126
f 471/33/16 472/14/16 473/86/16 475/119/16
f 478/33/7 471/33/7 474/36/7 479/36/7
f 477/14/7 472/14/7 471/33/7 478/33/7
f 466/86/47 473/86/47 472/14/47 408/14/47
f 415/36/48 474/36/48 476/87/48 467/87/48
f 467/87/125 476/87/125 475/119/125 465/119/125
f 469/33/126 478/33/126 479/36/126 470/36/126
f 466/86/16 409/84/16 417/83/16 465/119/16
f 367/27/16 480/43/16 371/120/16 358/26/16
f 532/121/127 546/121/127 531/121/127 371/44/127 480/44/127
f 546/121/128 555/121/128 557/122/128 548/122/128
f 499/123/7 512/123/7 495/124/7 485/124/7
f 512/123/18 511/82/18 494/125/18 495/124/18
f 525/47/129 606/47/129 605/114/129 528/114/129
f 508/126/130 540/126/130 541/127/130 509/127/130
f 510/128/131 542/128/131 539/107/131 507/107/131
f 518/129/18 520/47/18 488/131/18 486/130/18
f 520/47/5 522/47/5 490/131/5 488/131/5
f 503/132/7 505/82/7 491/125/7 489/133/7
f 498/81/13 501/135/13 487/134/13 483/125/13
f 501/135/18 503/132/18 489/133/18 487/134/18
f 516/101/5 529/101/5 494/125/5 483/125/5
f 497/37/18 507/107/18 493/131/18 482/131/18
f 515/46/43 518/129/43 486/130/43 482/131/43
f 396/38/18 455/38/18 507/107/18 497/37/18
f 629/74/16 644/74/16 331/73/16 310/73/16
f 433/17/18 441/17/18 503/132/18 501/135/18
f 398/17/13 433/17/13 501/135/13 498/81/13
f 441/17/7 449/17/7 505/82/7 503/132/7
f 457/53/124 456/80/124 508/126/124 509/127/124
f 458/54/7 457/53/7 509/127/7 510/128/7
f 455/38/7 458/54/7 510/128/7 507/107/7
f 464/116/18 461/17/18 511/82/18 512/123/18
f 404/116/7 464/116/7 512/123/7 499/123/7
f 481/75/132 395/76/132 513/136/132 547/136/132 514/136/132
f 486/130/18 488/131/18 502/107/18 500/39/18
f 488/131/5 490/131/5 504/107/5 502/107/5
f 483/125/5 494/125/5 511/82/5 498/81/5
f 482/131/43 486/130/43 500/39/43 497/37/43
f 513/137/133 395/3/133 380/4/133 371/4/133 531/139/133 496/138/133
f 348/2/43 427/2/43 518/129/43 515/46/43
f 352/98/5 460/98/5 529/101/5 516/101/5
f 435/2/5 443/2/5 624/140/5 522/47/5 520/47/5
f 427/2/18 435/2/18 520/47/18 518/129/18
f 532/121/134 549/121/134 555/121/134 546/121/134
f 485/124/7 495/124/7 530/115/7 517/115/7
f 495/124/18 494/125/18 529/101/18 530/115/18
f 527/112/135 607/112/135 603/113/135 526/113/135
f 509/127/131 541/127/131 542/128/131 510/128/131
f 493/131/136 535/131/136 534/47/136 597/47/136 525/47/136
f 489/133/7 491/125/7 523/101/7 521/100/7
f 483/125/13 487/134/13 519/97/13 516/101/13
f 487/134/18 489/133/18 521/100/18 519/97/18
f 595/141/5 639/141/5 638/142/5 594/142/5
f 482/131/18 493/131/18 525/47/18 515/46/18
f 507/107/136 539/107/136 535/131/136 493/131/136
f 572/143/137 570/122/137 484/122/137 544/122/137 543/144/137
f 601/112/138 609/112/138 604/114/138 599/114/138
f 543/144/134 554/144/134 549/121/134 532/121/134
f 548/122/128 557/122/128 556/136/128 547/136/128
f 552/136/139 556/136/139 557/122/139 550/122/139
f 548/122/140 496/145/140 531/121/140 546/121/140
f 547/136/141 513/136/141 496/145/141 548/122/141
f 550/122/142 557/122/142 555/121/142 549/121/142
f 551/122/143 550/122/143 549/121/143 554/144/143
f 553/136/144 552/136/144 550/122/144 551/122/144
f 547/136/145 556/136/145 552/136/145 514/136/145
f 514/136/145 552/136/145 553/136/145 545/136/145
f 545/136/146 553/136/146 551/122/146 544/122/146
f 544/122/146 551/122/146 554/144/146 543/144/146
f 535/131/147 561/131/147 560/47/147 534/47/147
f 563/107/7 566/128/7 564/127/7 565/126/7 562/147/7 559/146/7 561/131/7
f 534/47/148 560/47/148 567/114/148 538/114/148
f 538/114/148 567/114/148 568/112/148 537/112/148
f 541/127/149 564/127/149 566/128/149 542/128/149
f 539/107/147 563/107/147 561/131/147 535/131/147
f 542/128/149 566/128/149 563/107/149 539/107/149
f 540/126/149 565/126/149 564/127/149 541/127/149
f 537/112/148 568/112/148 569/113/148 536/113/148
f 559/146/7 558/148/7 569/113/7 568/112/7 567/114/7 560/47/7 561/131/7
f 570/122/150 572/143/150 571/121/150
f 573/113/151 575/148/151 574/148/151
f 573/121/152 574/122/152 570/122/152 571/121/152 600/149/152
f 570/122/16 574/122/16 533/122/16 484/122/16
f 526/113/153 598/113/153 536/113/153 573/113/153 600/113/153 571/113/153
f 572/143/154 543/144/154 532/121/154 480/44/154 370/44/154
f 526/113/150 571/113/150 572/150/150 370/13/150 452/14/150
f 575/121/155 558/121/155 559/122/155 533/122/155 574/122/155
f 536/113/148 569/113/148 558/148/148 575/148/148 573/113/148
f 578/147/156 580/147/156 579/126/156
f 578/147/157 579/126/157 576/151/157 577/147/157
f 402/75/158 481/75/158 514/136/158 545/136/158 544/122/158 484/122/158 577/152/158
f 576/151/159 579/126/159 540/126/159 508/126/159
f 484/122/160 533/122/160 578/122/160 577/152/160
f 576/136/150 508/126/150 456/80/150 402/77/150 577/152/150
f 533/122/155 559/122/155 562/136/155 580/136/155 578/122/155
f 580/147/149 562/147/149 565/126/149 540/126/149 579/126/149
f 253/153/3 261/154/3 586/66/3 581/65/3
f 259/155/3 257/156/3 585/24/3 583/25/3
f 258/70/3 265/70/3 587/41/3 588/41/3
f 261/154/3 256/157/3 584/19/3 586/66/3
f 255/158/3 259/155/3 583/25/3 582/18/3
f 257/156/3 258/70/3 588/41/3 585/24/3
f 256/157/3 255/158/3 582/18/3 584/19/3
f 379/41/161 587/41/161 265/70/161 1/70/161
f 394/66/106 586/66/106 584/19/106 389/19/106
f 362/159/18 88/160/18 7/160/18 351/159/18
f 628/161/16 643/161/16 644/74/16 629/74/16
f 589/63/18 592/64/18 628/161/18 629/74/18
f 351/159/3 634/159/3 636/56/3 590/56/3
f 596/162/5 640/162/5 637/163/5 591/163/5
f 7/160/3 318/160/3 634/159/3 351/159/3
f 591/163/18 404/116/18 499/123/18 596/162/18
f 594/142/18 485/124/18 517/115/18 595/141/18
f 596/162/18 499/123/18 485/124/18 594/142/18
f 592/64/18 381/15/18 630/117/18 628/161/18
f 593/56/18 362/159/18 351/159/18 590/56/18
f 595/141/18 517/115/18 384/55/18 590/56/18
f 601/112/162 537/112/162 536/113/162 598/113/162
f 599/114/163 538/114/163 537/112/163 601/112/163
f 597/47/163 534/47/163 538/114/163 599/114/163
f 607/112/164 609/112/164 602/113/164 603/113/164
f 605/114/163 604/114/163 609/112/163 607/112/163
f 606/47/163 608/47/163 604/114/163 605/114/163
f 526/113/165 603/113/165 602/113/165 598/113/165
f 597/47/166 608/47/166 606/47/166 525/47/166
f 599/114/138 604/114/138 608/47/138 597/47/138
f 598/113/167 602/113/167 609/112/167 601/112/167
f 528/114/129 605/114/129 607/112/129 527/112/129
f 426/164/18 621/169/18 620/168/18 625/167/18 624/140/18 443/2/18 445/2/18 613/166/18 615/165/18 446/164/18
f 523/101/18 491/125/18 505/82/18 449/17/18 611/103/18 617/104/18 450/78/18 506/174/18 492/173/18 524/172/18 621/169/18 623/171/18 619/170/18 618/102/18
f 524/172/18 492/173/18 506/174/18 450/78/18 614/110/18 612/111/18 448/38/18 504/107/18 490/131/18 522/47/18 624/140/18 625/167/18 620/168/18 621/169/18
f 623/171/18 621/169/18 426/164/18 446/164/18 616/176/18 610/175/18 447/98/18 444/98/18 618/102/18 619/170/18
f 618/102/7 444/98/7 436/98/7 622/99/7
f 311/177/18 631/178/18 634/159/18 318/160/18
f 590/56/5 636/56/5 639/141/5 595/141/5
f 591/163/5 637/163/5 641/179/5 626/179/5
f 627/118/18 404/116/18 591/163/18 626/179/18
f 626/179/5 641/179/5 643/161/5 628/161/5
f 594/142/5 638/142/5 640/162/5 596/162/5
f 630/117/18 627/118/18 626/179/18 628/161/18
f 315/180/18 633/183/18 632/182/18 313/181/18
f 317/184/18 635/185/18 633/183/18 315/180/18
f 313/181/18 632/182/18 631/178/18 311/177/18
f 633/183/18 640/162/18 638/142/18 632/182/18
f 631/178/18 639/141/18 636/56/18 634/159/18
f 635/185/18 637/163/18 640/162/18 633/183/18
f 632/182/18 638/142/18 639/141/18 631/178/18
f 641/179/18 637/163/18 635/185/18 642/186/18
f 642/186/18 635/185/18 317/184/18 328/187/18
f 643/161/18 641/179/18 642/186/18 644/74/18
f 644/74/18 642/186/18 328/187/18 331/73/18
f 385/41/168 656/41/168 655/24/168 391/24/168
f 652/19/169 650/18/169 646/34/169 645/32/169
f 650/18/169 651/25/169 647/35/169 646/34/169
f 653/66/169 652/19/169 645/32/169 648/31/169
f 654/65/169 653/66/169 648/31/169 649/50/169 658/50/169 659/65/169
f 651/25/170 655/24/170 656/41/170 657/42/170 647/35/170
f 354/50/171 649/50/171 648/31/171 376/31/171
f 378/42/172 657/42/172 656/41/172 385/41/172
f 381/15/171 654/15/171 659/15/171 463/15/171
f 376/31/171 648/31/171 645/32/171 364/32/171
f 359/35/173 647/35/173 657/40/173 378/40/173
f 389/19/99 652/19/99 653/66/99 394/66/99
f 387/25/99 651/25/99 650/18/99 383/18/99
f 394/66/99 653/66/99 654/65/99 381/65/99
f 355/34/171 646/34/171 647/35/171 359/35/171
f 364/32/171 645/32/171 646/34/171 355/34/171
